# Blender v2.79 (sub 0) OBJ File: ''
# www.blender.org
mtllib spiderrightleg.mtl
o Spider_Spider.005
v -15.443235 43.046265 -5.121735
v -14.563931 45.411831 -12.802380
v -16.957205 46.308849 -16.728779
v -20.394506 45.812805 -13.722046
v -20.402706 39.500893 -13.009992
v -32.420002 50.468563 -41.998623
v -29.134790 47.680515 -41.537354
v -37.450359 34.485668 -67.550674
v -40.834270 39.327286 -68.952271
v -36.340054 50.075134 -39.401443
v -45.355896 38.599316 -65.768829
v -37.556652 46.480484 -37.325176
v -45.746193 35.217941 -64.180283
v -36.534832 1.917851 -102.487930
v -36.436211 2.163408 -101.406227
v -35.251575 1.894229 -102.723885
v -34.883083 1.920851 -101.625557
v -28.422256 49.919151 -26.415195
v -29.490891 43.850296 -25.374550
v -24.995214 49.914501 -28.612957
v -14.536436 42.489239 -18.170792
v -22.806530 46.217007 -30.263889
v -32.775360 42.543499 -39.108585
v -41.114700 30.291096 -65.681847
v -25.544369 40.498108 -27.482697
v -16.844671 36.467674 -15.235392
v -13.903458 44.565617 -11.363840
v -15.023112 44.227425 -8.965187
v -15.410963 43.337685 -5.251120
v -15.677448 43.151024 -1.684209
v -15.665797 43.118114 1.710224
v -15.364483 43.099785 5.017905
v -46.271164 1.531687 95.008949
v -46.764610 1.536234 95.595398
v -45.706635 25.344814 72.267258
v -44.217735 21.864641 71.682388
v -42.630775 23.583429 72.403793
v -38.007805 38.791580 45.885536
v -35.006813 40.427063 46.968128
v -40.832996 42.851585 47.051601
v -27.894533 40.001156 24.019125
v -24.529448 41.212685 25.878811
v -31.263447 44.032856 22.897758
v -19.041416 38.944412 10.549539
v -16.892202 36.185249 13.747971
v -15.021791 38.549664 17.424726
v -45.980576 1.522078 95.434616
v -46.354404 1.525157 95.919380
v -42.642372 25.508669 73.146568
v -44.193375 26.560629 74.273712
v -38.026207 46.452827 49.487373
v -34.020012 43.274178 49.345589
v -23.852463 45.665337 26.002075
v -27.490803 47.561890 22.657661
v -17.038656 42.747498 11.400733
v -16.275229 42.395699 17.377892
v -14.008069 43.827625 15.265956
v -14.814499 42.950478 8.258285
v -91.220566 1.525735 36.158283
v -91.689835 1.535591 35.700882
v -69.494812 29.016706 16.604612
v -68.569580 26.294460 20.879677
v -42.481361 39.895660 11.375373
v -43.481174 43.090290 7.140923
v -31.322205 42.079697 4.758957
v -30.602472 39.044586 8.479054
v -42.132568 43.128399 15.825467
v -30.629358 42.426624 12.431226
v -18.601946 37.401230 2.449079
v -17.913879 33.995754 5.734088
v -17.972439 37.007431 9.251168
v -67.900253 30.022907 25.301622
v -43.639217 47.124172 8.803902
v -31.005737 45.981903 5.964525
v -18.273924 42.122795 3.615859
v -42.385410 47.034634 13.497698
v -30.225534 45.562759 10.929569
v -17.633224 41.955891 8.642814
v -91.546257 1.523608 36.453938
v -91.997681 1.532747 36.037460
v -71.803650 32.558853 19.391314
v -70.668396 33.575245 23.369570
v -15.835382 43.124271 1.760292
v -85.152420 1.533606 -44.011589
v -84.843201 1.523709 -44.908779
v -68.436867 31.073389 -33.371399
v -69.635468 27.304485 -30.743368
v -42.032516 42.493080 -11.725139
v -41.199688 45.852051 -16.359903
v -29.960003 42.836060 -10.780932
v -31.183691 39.018169 -6.487605
v -44.717007 46.254097 -8.089432
v -33.134731 42.476124 -2.754845
v -16.956821 37.681206 -6.995733
v -17.306765 33.980259 -3.034341
v -18.389252 37.612850 0.563232
v -71.078064 30.900898 -28.317747
v -42.334602 49.718678 -14.892456
v -29.921141 46.948833 -8.912157
v -18.040421 42.373238 -5.468123
v -44.173450 50.397537 -9.933747
v -31.598515 47.610210 -4.443049
v -18.553303 42.446938 -1.250264
v -85.759338 1.534741 -44.283470
v -85.457672 1.525166 -45.149879
v -71.378036 32.661572 -33.682243
v -72.294685 32.256737 -30.328924
vt 0.897700 3.873100
vt 0.332000 3.451500
vt 0.316700 3.106700
vt 0.757300 3.140000
vt 1.347200 3.236300
vt 0.312800 1.211800
vt -0.001400 1.282300
vt -0.037600 -0.508400
vt 0.370900 -0.421300
vt 0.654700 1.247400
vt 0.733600 -0.321400
vt 0.968100 1.283500
vt 0.979300 -0.347500
vt 0.752100 -3.303800
vt 0.652400 -3.303800
vt 0.696700 -3.303800
vt 0.497400 -3.303800
vt 0.647100 2.099500
vt 1.168800 2.153500
vt 0.315400 2.099300
vt -0.134700 3.181900
vt -0.084900 2.114500
vt -0.586200 1.262500
vt -0.495000 -0.623500
vt 1.492100 1.256100
vt 1.395100 -0.568000
vt 1.688000 2.188200
vt 1.849400 3.298700
vt -0.727700 2.224600
vt -0.811100 3.361600
vt 0.477900 -3.291200
vt 0.323000 -3.291200
vt 1.040200 -3.303800
vt 0.849900 -3.303800
vt 0.062600 -1.114100
vt -0.239800 -1.222500
vt 1.432700 -1.460300
vt 1.049600 -1.306400
vt 1.373000 0.424600
vt 1.028300 0.528400
vt -0.137500 0.595400
vt -0.604600 0.679100
vt 1.516100 1.940200
vt 1.160600 2.042500
vt -0.260700 2.105800
vt -0.763200 2.260500
vt -0.382000 3.312400
vt -0.884100 3.384400
vt 1.649700 3.019000
vt 1.151100 3.029600
vt 0.607700 -3.303800
vt 0.279100 -3.303800
vt 0.740700 -1.176100
vt 0.422000 -1.180800
vt 0.298500 0.546100
vt 0.706400 0.507800
vt 0.716400 2.076300
vt 0.234900 2.164100
vt -0.005300 3.314100
vt 0.704600 3.002900
vt 0.620700 3.246500
vt 0.027300 3.612100
vt 1.024700 -3.303800
vt 0.159800 -3.303800
vt -0.161200 -0.722900
vt -0.563500 -0.862400
vt -0.632300 1.261700
vt -0.099800 1.247800
vt -0.163200 2.090200
vt -0.690600 2.171100
vt 1.123500 1.013000
vt 1.697700 0.957400
vt 1.715800 1.874300
vt 1.152000 1.850400
vt -0.384600 3.118400
vt -0.892100 3.220700
vt 1.872100 2.911100
vt 1.377100 2.878900
vt 1.674000 -1.177600
vt 1.114000 -0.977000
vt 0.286900 1.206200
vt 0.258700 2.002000
vt 0.181200 3.014700
vt 0.716100 1.139700
vt 0.777100 1.922000
vt 0.789100 2.922100
vt 0.903600 -3.303800
vt 0.384700 -3.303800
vt 0.299100 -0.801400
vt 0.681300 -0.851500
vt 0.727900 3.143600
vt 0.149900 3.218300
vt 1.024200 -3.303800
vt 0.297700 -3.303800
vt -0.250500 -0.319900
vt -0.561700 -0.401500
vt -0.618000 1.584800
vt -0.139200 1.493100
vt -0.193300 2.293100
vt -0.758600 2.430500
vt 0.954700 1.404100
vt 1.434200 1.293700
vt 1.587300 2.090100
vt 1.086000 2.097600
vt -0.369700 3.285600
vt -0.881800 3.432800
vt 1.778200 3.088100
vt 1.243500 3.134800
vt 1.312900 -0.828100
vt 0.913600 -0.476900
vt 0.214700 1.453200
vt 0.188100 2.219800
vt 0.142400 3.161700
vt 0.601100 1.449300
vt 0.613800 2.147500
vt 0.653300 3.167500
vt 0.712800 -3.303800
vt 0.488000 -3.303800
vt 0.081000 -0.449800
vt 0.444800 -0.478700
vt 0.747900 3.430300
vt 0.118600 3.338600
vn -0.5556 0.6548 0.5124
vn 0.0240 0.9632 0.2676
vn 0.3577 0.9328 0.0428
vn -0.4833 0.7017 0.5235
vn -0.8391 -0.3124 0.4453
vn 0.2584 0.9158 -0.3073
vn 0.9104 0.0906 -0.4038
vn 0.9914 -0.0209 -0.1295
vn 0.1328 0.7789 -0.6130
vn -0.6092 0.7818 0.1329
vn -0.7931 0.5530 -0.2553
vn -0.8809 -0.1582 0.4461
vn -0.9286 -0.2908 0.2304
vn -0.7710 -0.3038 -0.5597
vn -0.4645 -0.8493 0.2509
vn -0.0003 -0.4768 -0.8790
vn 0.9277 -0.3728 0.0212
vn -0.4388 0.7928 0.4230
vn -0.8263 -0.3207 0.4630
vn 0.4051 0.9093 -0.0949
vn 0.8019 -0.1014 -0.5888
vn 0.8465 0.0482 -0.5302
vn 0.0963 -0.9894 0.1082
vn 0.0412 -0.8486 0.5274
vn 0.0183 -0.9675 -0.2523
vn -0.0497 -0.9607 -0.2732
vn 0.0936 -0.9334 -0.3463
vn -0.9132 -0.3713 0.1680
vn -0.9936 0.1040 -0.0443
vn -0.1413 -0.7751 -0.6159
vn 0.8881 -0.4370 -0.1427
vn -0.2579 -0.8965 -0.3602
vn 0.7842 -0.6074 0.1267
vn -0.9554 0.1954 -0.2216
vn -0.3223 -0.9428 -0.0856
vn 0.6027 -0.6256 0.4953
vn -0.8585 0.0624 -0.5091
vn -0.7271 -0.1724 -0.6646
vn -0.3408 -0.9401 0.0029
vn 0.4172 -0.6380 0.6472
vn 0.8389 -0.3612 0.4072
vn -0.2231 -0.4913 0.8419
vn 0.8974 0.1863 0.4001
vn -0.1453 0.7226 0.6758
vn -0.1868 0.9361 0.2980
vn 0.8444 0.3375 0.4160
vn 0.7487 0.5320 0.3955
vn -0.1478 0.9437 -0.2959
vn -0.3038 0.9135 -0.2706
vn 0.5231 0.7677 0.3701
vn -0.3390 0.9408 0.0029
vn 0.3144 -0.8102 0.4947
vn -0.2909 -0.6644 -0.6884
vn -0.2647 -0.3076 -0.9140
vn 0.5944 -0.7954 -0.1186
vn 0.2133 -0.9762 -0.0388
vn -0.2433 -0.1886 -0.9514
vn -0.2375 -0.2354 -0.9424
vn -0.2230 -0.9744 0.0274
vn 0.3008 -0.0739 0.9508
vn 0.1854 -0.2151 0.9588
vn -0.3154 -0.3737 -0.8723
vn -0.3592 -0.9332 -0.0087
vn 0.0123 -0.4455 0.8952
vn 0.4014 -0.0565 0.9141
vn -0.2906 0.8182 -0.4961
vn 0.0487 0.8209 -0.5689
vn -0.0936 0.9237 -0.3714
vn -0.0181 0.8822 0.4706
vn 0.2779 0.7994 0.5327
vn 0.1158 0.8792 0.4621
vn -0.7827 -0.1587 0.6018
vn -0.9266 -0.3147 -0.2061
vn -0.7243 0.5773 -0.3770
vn -0.3931 0.7425 0.5423
vn -0.3259 0.9424 0.0748
vn -0.0160 -0.8769 0.4804
vn 0.5349 -0.5338 -0.6549
vn 0.5866 -0.0692 -0.8069
vn 0.5517 -0.7390 0.3867
vn -0.0072 -0.9982 0.0597
vn 0.4933 -0.0822 -0.8659
vn 0.2823 -0.2274 -0.9320
vn -0.2934 -0.9545 -0.0527
vn -0.5082 -0.0818 0.8574
vn -0.3861 -0.2299 0.8934
vn 0.1011 -0.4049 -0.9088
vn -0.3150 -0.9473 -0.0587
vn -0.3340 -0.3882 0.8589
vn -0.5336 -0.1720 0.8281
vn 0.1196 0.8531 -0.5078
vn 0.4204 0.7883 -0.4494
vn 0.2417 0.8854 -0.3970
vn -0.3324 0.8580 0.3916
vn 0.0587 0.8247 0.5625
vn -0.0392 0.9177 0.3953
vn -0.9450 -0.3025 0.1241
vn -0.5483 -0.3720 -0.7490
vn -0.3096 0.6547 -0.6896
vn -0.8033 0.5524 0.2226
vn -0.2272 0.9733 -0.0318
usemtl Spider
s 1
f 1/1/1 2/2/2 3/3/3 4/4/4
f 1/1/1 4/4/4 5/5/5
f 6/6/6 7/7/7 8/8/8 9/9/9
f 10/10/10 6/6/6 9/9/9 11/11/11
f 12/12/12 10/10/10 11/11/11 13/13/13
f 13/13/13 11/11/11 14/14/14 15/15/15
f 11/11/11 9/9/9 16/16/16 14/14/14
f 9/9/9 8/8/8 17/17/17 16/16/16
f 15/15/15 14/14/14 16/16/16 17/17/17
f 4/4/4 18/18/18 19/19/19 5/5/5
f 18/18/18 10/10/10 12/12/12 19/19/19
f 3/3/3 20/20/20 18/18/18 4/4/4
f 20/20/20 6/6/6 10/10/10 18/18/18
f 21/21/21 22/22/22 20/20/20 3/3/3
f 22/22/22 7/7/7 6/6/6 20/20/20
f 7/7/7 23/23/23 24/24/24 8/8/8
f 23/25/23 12/12/12 13/13/13 24/26/24
f 24/26/24 13/13/13 15/15/15
f 19/19/19 25/27/25 26/28/26 5/5/5
f 25/29/25 22/22/22 21/21/21 26/30/26
f 12/12/12 23/25/23 25/27/25 19/19/19
f 23/23/23 7/7/7 22/22/22 25/29/25
f 15/31/15 17/32/17 8/8/8 24/24/24
usemtl Spider_NONE
f 33/33/27 34/34/28 35/35/29 36/36/30
f 36/37/30 37/38/31 33/33/27
f 38/39/32 39/40/33 37/38/31 36/37/30
f 40/41/34 38/42/32 36/36/30 35/35/29
f 41/43/35 42/44/36 39/40/33 38/39/32
f 43/45/37 41/46/35 38/42/32 40/41/34
f 41/46/35 43/45/37 44/47/38 45/48/39
f 42/44/36 41/43/35 45/49/39 46/50/40
f 33/33/27 47/51/41 48/52/42 34/34/28
f 37/38/31 49/53/43 47/51/41 33/33/27
f 49/53/43 50/54/44 48/52/42 47/51/41
f 50/54/44 35/35/29 34/34/28 48/52/42
f 51/55/45 40/41/34 35/35/29 50/54/44
f 52/56/46 51/55/45 50/54/44 49/53/43
f 39/40/33 52/56/46 49/53/43 37/38/31
f 42/44/36 53/57/47 52/56/46 39/40/33
f 53/57/47 54/58/48 51/55/45 52/56/46
f 54/58/48 43/45/37 40/41/34 51/55/45
f 44/47/38 43/45/37 54/58/48 55/59/49
f 55/59/49 54/58/48 53/57/47 56/60/50
f 56/60/50 53/57/47 42/44/36 46/50/40
f 57/61/51 58/62/51 55/59/49 56/60/50
f 59/63/52 60/64/53 61/65/54 62/66/55
f 63/67/56 64/68/57 65/69/58 66/70/59
f 67/71/60 63/72/56 66/73/59 68/74/61
f 66/70/59 65/69/58 69/75/62 70/76/63
f 68/74/61 66/73/59 70/77/63 71/78/64
f 62/79/55 72/80/65 59/63/52
f 63/72/56 67/71/60 72/80/65 62/79/55
f 64/68/57 63/67/56 62/66/55 61/65/54
f 65/69/58 64/68/57 73/81/66 74/82/67
f 69/75/62 65/69/58 74/82/67 75/83/68
f 74/82/67 73/81/66 76/84/69 77/85/70
f 75/83/68 74/82/67 77/85/70 78/86/71
f 77/85/70 76/84/69 67/71/60 68/74/61
f 78/86/71 77/85/70 68/74/61 71/78/64
f 59/63/52 79/87/72 80/88/73 60/64/53
f 81/89/74 61/65/54 60/64/53 80/88/73
f 82/90/75 81/89/74 80/88/73 79/87/72
f 72/80/65 82/90/75 79/87/72 59/63/52
f 67/71/60 76/84/69 82/90/75 72/80/65
f 76/84/69 73/81/66 81/89/74 82/90/75
f 73/81/66 64/68/57 61/65/54 81/89/74
f 58/91/76 83/92/76 75/83/68 78/86/71
f 84/93/77 85/94/78 86/95/79 87/96/80
f 88/97/81 89/98/82 90/99/83 91/100/84
f 92/101/85 88/102/81 91/103/84 93/104/86
f 91/100/84 90/99/83 94/105/87 95/106/88
f 93/104/86 91/103/84 95/107/88 96/108/89
f 87/109/80 97/110/90 84/93/77
f 88/102/81 92/101/85 97/110/90 87/109/80
f 89/98/82 88/97/81 87/96/80 86/95/79
f 90/99/83 89/98/82 98/111/91 99/112/92
f 94/105/87 90/99/83 99/112/92 100/113/93
f 99/112/92 98/111/91 101/114/94 102/115/95
f 100/113/93 99/112/92 102/115/95 103/116/96
f 102/115/95 101/114/94 92/101/85 93/104/86
f 103/116/96 102/115/95 93/104/86 96/108/89
f 84/93/77 104/117/97 105/118/98 85/94/78
f 106/119/99 86/95/79 85/94/78 105/118/98
f 107/120/100 106/119/99 105/118/98 104/117/97
f 97/110/90 107/120/100 104/117/97 84/93/77
f 92/101/85 101/114/94 107/120/100 97/110/90
f 101/114/94 98/111/91 106/119/99 107/120/100
f 98/111/91 89/98/82 86/95/79 106/119/99
f 83/121/101 1/122/101 100/113/93 103/116/96
l 30 31
l 27 28
l 29 30
l 31 32
l 28 29
